<svg width="21" height="26" viewBox="0 0 21 26" fill="none" xmlns="http://www.w3.org/2000/svg">
<path d="M17.5397 13.8267C17.5654 11.8196 18.6355 9.92049 20.333 8.86924C19.2621 7.32862 17.4684 6.35183 15.6022 6.29301C13.6117 6.08256 11.6821 7.49276 10.6678 7.49276C9.63384 7.49276 8.07216 6.31391 6.3905 6.34876C4.19852 6.42009 2.15504 7.67542 1.0886 9.60578C-1.20383 13.6037 0.506116 19.4794 2.70207 22.711C3.80076 24.2934 5.08481 26.0611 6.76495 25.9984C8.40908 25.9297 9.02313 24.9423 11.0077 24.9423C12.9739 24.9423 13.55 25.9984 15.2643 25.9585C17.0285 25.9297 18.14 24.3691 19.2002 22.7716C19.9896 21.6441 20.597 20.3979 21 19.0792C18.9267 18.1959 17.5422 16.0942 17.5397 13.8267Z" fill="black"/>
<path d="M14.3018 4.16773C15.2637 3.00454 15.7376 1.50947 15.6229 0C14.1533 0.155481 12.7958 0.862984 11.8208 1.98154C10.8675 3.07443 10.3714 4.5432 10.4652 5.99497C11.9353 6.01022 13.3806 5.32189 14.3018 4.16773Z" fill="black"/>
</svg>
