<svg width="25" height="24" viewBox="0 0 25 24" fill="none" xmlns="http://www.w3.org/2000/svg">
<path d="M20.6998 10.1C20.6998 10.32 20.5198 10.501 20.2998 10.49C19.1244 10.4311 17.9764 10.1135 16.9378 9.56C16.6568 9.41 16.2998 9.605 16.2998 9.924V15.5C16.2997 16.6696 15.9578 17.8137 15.3161 18.7916C14.6744 19.7695 13.7608 20.5385 12.6878 21.004C11.6148 21.4695 10.4291 21.6112 9.27663 21.4118C8.12413 21.2123 7.05505 20.6803 6.2009 19.8813C5.34674 19.0823 4.74475 18.051 4.46897 16.9144C4.19319 15.7777 4.25565 14.5852 4.64865 13.4836C5.04166 12.382 5.74808 11.4192 6.68103 10.7138C7.61398 10.0083 8.73277 9.59098 9.89981 9.513C9.95196 9.51024 10.0041 9.51826 10.053 9.53656C10.102 9.55486 10.1466 9.58305 10.1841 9.61937C10.2216 9.65568 10.2513 9.69934 10.2712 9.74763C10.2911 9.79591 10.3008 9.84778 10.2998 9.9V12.7C10.2998 12.92 10.1198 13.097 9.90181 13.133C9.45049 13.2089 9.03028 13.4122 8.69073 13.7191C8.35117 14.0259 8.10642 14.4234 7.98533 14.8648C7.86425 15.3061 7.87187 15.7729 8.00731 16.21C8.14275 16.6472 8.40035 17.0365 8.74975 17.3321C9.09915 17.6276 9.52577 17.8172 9.97933 17.8783C10.4329 17.9394 10.8944 17.8695 11.3096 17.677C11.7248 17.4844 12.0762 17.1772 12.3226 16.7915C12.5689 16.4057 12.6998 15.9577 12.6998 15.5V2.9C12.6998 2.79391 12.7419 2.69217 12.817 2.61716C12.892 2.54214 12.9937 2.5 13.0998 2.5H15.8998C16.0068 2.50273 16.1088 2.54522 16.1861 2.61919C16.2634 2.69315 16.3104 2.79328 16.3178 2.9C16.4113 3.92472 16.861 4.88426 17.5887 5.61177C18.3164 6.33928 19.2761 6.78874 20.3008 6.882C20.5208 6.902 20.7008 7.079 20.7008 7.3L20.6998 10.1Z" stroke="#295D75" stroke-width="1.5" stroke-linecap="round" stroke-linejoin="round"/>
</svg>
