<svg width="25" height="24" viewBox="0 0 25 24" fill="none" xmlns="http://www.w3.org/2000/svg">
<path d="M22.0561 7.19703C21.9425 6.77353 21.7194 6.38737 21.4093 6.07731C21.0993 5.76725 20.7131 5.5442 20.2896 5.43053C19.1326 4.98353 7.92362 4.76453 4.67162 5.44303C4.24806 5.55674 3.86186 5.77987 3.5518 6.09002C3.24173 6.40018 3.01871 6.78644 2.90512 7.21003C2.38262 9.50153 2.34312 14.4555 2.91812 16.7985C3.03179 17.222 3.25484 17.6082 3.5649 17.9183C3.87496 18.2283 4.26112 18.4514 4.68462 18.565C6.97612 19.0925 17.8701 19.1665 20.3026 18.565C20.7261 18.4514 21.1123 18.2283 21.4223 17.9183C21.7324 17.6082 21.9555 17.222 22.0691 16.7985C22.6261 14.302 22.6656 9.65503 22.0561 7.19703Z" stroke="#295D75" stroke-width="1.5" stroke-linecap="round" stroke-linejoin="round"/>
<path d="M15.7836 11.9975L10.5601 9.00195V14.993L15.7836 11.9975Z" stroke="#295D75" stroke-width="1.5" stroke-linecap="round" stroke-linejoin="round"/>
</svg>
